<svg xmlns="http://www.w3.org/2000/svg" width="40" height="52" fill="#afb1b8" xmlns:v="https://vecta.io/nano"><path d="M16.977 2.935h.137c.253 0 .526.025.797.048 1.193.084 2.377.263 3.542.534V.654a21.09 21.09 0 0 0-3.655-.582L16.32 0h-.427c-2.475.01-4.94.327-7.336.946-2.73.68-5.35 1.747-7.784 3.166V32.5a31.59 31.59 0 0 1 7.42-2.89 32.36 32.36 0 0 1 6.228-.956h.084l1.065-.03v-2.9A34.33 34.33 0 0 0 7.475 26.8l-2.813.834-1.012.343V5.833l.433-.2A28.29 28.29 0 0 1 14.599 2.94c.03-.002.06-.002.1 0a23.94 23.94 0 0 1 1.204-.031h.455l.63.023zM24.1 5.933a26.64 26.64 0 0 1-1.958-.07l-2.277-.272-1.323-.267v28.07c1.82.45 3.7.67 5.565.656 2.475-.01 4.94-.327 7.336-.944 2.73-.682 5.352-1.748 7.787-3.166V2.05a31.8 31.8 0 0 1-7.417 2.894 31.5 31.5 0 0 1-7.713.99zm11.224.486l1.012-.34v22.15l-.433.2a27.76 27.76 0 0 1-5.173 1.859 26.88 26.88 0 0 1-6.62.857 22.81 22.81 0 0 1-1.973-.084l-.693-.06V8.23l.807.053 1.854.056c2.836-.01 5.66-.372 8.406-1.078l2.813-.842zM2.737 42.212a1.49 1.49 0 0 0-.515-.348c-.194-.078-.402-.115-.6-.107a1.66 1.66 0 0 0-.65.122 1.5 1.5 0 0 0-.506.333 1.45 1.45 0 0 0-.326.51 1.65 1.65 0 0 0-.116.628v3.794a1.79 1.79 0 0 0 .149.778c.1.194.22.368.38.5a1.33 1.33 0 0 0 .521.27 2.17 2.17 0 0 0 .567.08 1.42 1.42 0 0 0 .612-.132 1.6 1.6 0 0 0 .506-.351 1.65 1.65 0 0 0 .331-.509 1.53 1.53 0 0 0 .121-.605v-.425H2.2v.338a.88.88 0 0 1-.058.338.61.61 0 0 1-.144.214.6.6 0 0 1-.207.11.73.73 0 0 1-.207.036c-.1.01-.178-.003-.26-.04a.51.51 0 0 1-.206-.165.9.9 0 0 1-.132-.509v-3.537a1.21 1.21 0 0 1 .121-.567.53.53 0 0 1 .2-.184c.076-.04.18-.056.276-.044.085-.003.17.015.248.052a.53.53 0 0 1 .195.162c.1.146.17.325.164.5v.328h1V43.4a1.79 1.79 0 0 0-.121-.664 1.56 1.56 0 0 0-.331-.534zm5.893-.042c-.316-.267-.715-.414-1.128-.417-.202.001-.402.037-.592.107a1.84 1.84 0 0 0-.524.3 1.56 1.56 0 0 0-.385.532 1.77 1.77 0 0 0-.144.735v3.64a1.78 1.78 0 0 0 .144.745c.1.196.22.37.385.5a1.55 1.55 0 0 0 .524.32c.2.07.4.106.592.107a1.73 1.73 0 0 0 .592-.107 1.65 1.65 0 0 0 .536-.32c.156-.14.286-.315.374-.5a1.77 1.77 0 0 0 .144-.745v-3.64a1.77 1.77 0 0 0-.144-.735c-.088-.2-.216-.38-.374-.532zm-.463 4.905a.65.65 0 0 1-.198.527c-.13.1-.296.17-.467.17s-.336-.06-.467-.17a.65.65 0 0 1-.158-.241c-.034-.1-.048-.2-.04-.286v-3.64a.65.65 0 0 1 .198-.527c.13-.1.296-.17.467-.17s.336.06.467.17a.65.65 0 0 1 .158.241c.034.1.048.2.04.286v3.64zm8.2 1.625v-6.9h-.954l-1.252 3.647h-.018L12.882 41.8h-.944v6.9h.984v-4.2h.018l.964 2.963h.5l.97-2.963h.018v4.2h.984zm5.6-6.406a1.36 1.36 0 0 0-.557-.376c-.23-.075-.47-.1-.713-.107h-1.462v6.9h.982V46h.506a1.79 1.79 0 0 0 .885-.188 1.43 1.43 0 0 0 .539-.526 1.65 1.65 0 0 0 .225-.6 4.9 4.9 0 0 0 .053-.783 3.93 3.93 0 0 0-.096-.984 1.57 1.57 0 0 0-.362-.633zm-.506 2.1a.87.87 0 0 1-.091.359.55.55 0 0 1-.253.242 1.01 1.01 0 0 1-.463.087h-.448V42.74h.506a.94.94 0 0 1 .443.086.56.56 0 0 1 .23.254c.054.12.083.252.086.384v.93h-.01zm5.155-2.584h-.804l-1.518 6.9h.982l.288-1.48h1.338l.288 1.48h.982l-1.556-6.9zm-.906 4.47l.483-2.497h.018l.48 2.497H25.7zm7.25-.32h-.018L31.45 41.8h-.944v6.9h.982v-4.142h.02l1.5 4.142h.923v-6.9h-.982v4.15zm5.998-4.15l-.8 2.74h-.02l-.8-2.74h-1.04l1.348 3.977V48.7h.982v-2.912l1.348-3.977h-1.04zM0 50.645h.473v1.327h.32v-1.327h.47v-.272H0v.272zm3.977-.273l-.62 1.6H3.7l.132-.364h.637l.137.364h.35l-.635-1.6h-.342zm-.05.966l.218-.593.218.593h-.435zm3.98.044h.37v.206a.61.61 0 0 1-.38.135.39.39 0 0 1-.188-.035.41.41 0 0 1-.15-.118.67.67 0 0 1-.119-.417c0-.356.154-.534.46-.534a.34.34 0 0 1 .362.254l.316-.06c-.068-.313-.293-.47-.678-.47-.206-.006-.406.068-.56.206a.78.78 0 0 0-.183.282c-.04.106-.056.22-.048.333-.01.22.064.433.205.6.078.08.173.144.278.184a.79.79 0 0 0 .33.05.96.96 0 0 0 .678-.254v-.63h-.693v.27zm4.014-1H11.6v1.6h1.12V51.7h-.797v-1.327zm3.396 0h-.324v1.6h.324v-1.6zm3.318 1.068l-.655-1.068h-.314v1.6h.3v-1.045l.643 1.045h.32v-1.6h-.296v1.068zm3-.172h.797v-.272h-.797v-.35h.858v-.272h-1.18v1.6h1.214V51.7h-.9v-.432zm7.275-.265h-.63v-.63h-.32v1.6h.32v-.7h.63v.7h.32v-1.6h-.32v.63zm3.018.265h.8v-.272h-.8v-.35h.86v-.272H31.6v1.6h1.212V51.7h-.9v-.432zm4.094 0c.278-.043.42-.2.42-.445.008-.068-.002-.137-.03-.2a.38.38 0 0 0-.127-.156.9.9 0 0 0-.468-.094h-.678v1.6h.32v-.67h.063a.43.43 0 0 1 .2.036c.047.03.086.07.114.117l.35.5h.385l-.195-.313c-.086-.154-.207-.286-.354-.384zm-.324-.22h-.238v-.402h.253a.84.84 0 0 1 .326.038c.023.02.042.046.054.075s.018.06.016.1a.21.21 0 0 1-.025.089c-.015.028-.036.05-.06.07a.91.91 0 0 1-.326.038zm3.4.22h.797v-.272H39.1v-.35h.86v-.272h-1.184v1.6H40V51.7h-.9v-.432z"/></svg>