<svg xmlns="http://www.w3.org/2000/svg" width="45" height="50" fill="#afb1b8" xmlns:v="https://vecta.io/nano"><path d="M6 0l7.308 6.918h20.385v19.298L41 33.134V0H6z"/><path d="M0 6.626v32.187h34V26.02L13.523 6.634 0 6.626zm27.523 27.48H5.38V12.458h1.565V32.64h20.578v1.466zM9.8 44.784l.818-1.685h.684l-1.2 2.246v1.3h-.62v-1.3L8.287 43.1h.686l.818 1.685zm3.5 1.042h-1.377l-.288.828h-.642l1.343-3.555h.554l1.345 3.555H13.6l-.3-.828zm-1.204-.498h1.03l-.515-1.475-.515 1.475zm3.638.366c0-.164.045-.315.134-.452s.266-.302.53-.5c-.138-.174-.235-.322-.3-.444s-.08-.24-.08-.354c0-.278.085-.498.254-.66s.397-.244.684-.244c.26 0 .47.077.635.23a.73.73 0 0 1 .249.564c0 .148-.037.285-.112.4a1.34 1.34 0 0 1-.369.371l-.242.176.686.8a1.41 1.41 0 0 0 .15-.652h.515c0 .438-.102.797-.308 1.077l.523.618h-.688l-.2-.237a1.47 1.47 0 0 1-.908.286c-.352 0-.633-.093-.845-.278s-.315-.43-.315-.73zm1.177.535c.2 0 .387-.067.56-.2l-.776-.915-.076.054c-.195.148-.293.317-.293.508 0 .164.053.298.16.4s.247.154.425.154zm-.327-2.3c0 .137.084.308.252.515l.27-.185.076-.06a.44.44 0 0 0 .151-.344.31.31 0 0 0-.105-.237.37.37 0 0 0-.266-.1.35.35 0 0 0-.276.117.43.43 0 0 0-.103.295zm6.458 1.558c-.036.38-.176.675-.42.9s-.57.317-.974.317c-.283 0-.533-.067-.75-.2a1.31 1.31 0 0 1-.498-.574c-.118-.248-.178-.535-.183-.862v-.332c0-.335.06-.63.178-.886s.3-.452.5-.6.48-.208.77-.208c.392 0 .708.107.947.32s.378.514.418.903h-.615c-.03-.256-.104-.44-.225-.552s-.294-.17-.525-.17c-.268 0-.475.098-.62.295s-.216.483-.22.862v.315c0 .384.068.677.205.88s.34.303.605.303c.242 0 .425-.054.547-.164s.2-.3.232-.544h.615zm3.4-.527c0 .348-.06.654-.18.918s-.293.464-.518.605a1.42 1.42 0 0 1-.771.21c-.288 0-.545-.07-.77-.2s-.4-.343-.523-.603-.184-.56-.186-.9v-.2c0-.347.06-.653.183-.918s.297-.468.52-.608.482-.212.77-.212.546.07.77.2.398.338.52.6a2.16 2.16 0 0 1 .186.91v.198zm-.618-.185c0-.394-.075-.696-.225-.906a.73.73 0 0 0-.632-.315.73.73 0 0 0-.627.315c-.15.208-.226.504-.23.886v.205c0 .4.076.693.227.906s.365.32.635.32.483-.104.63-.312.222-.513.222-.913v-.185z"/></svg>