<svg xmlns="http://www.w3.org/2000/svg" width="59" height="47" fill="#afb1b8" xmlns:v="https://vecta.io/nano"><path d="M4.488 39.278a1.57 1.57 0 0 1 .346 1.011c.012.24-.03.48-.123.7a1.6 1.6 0 0 1-.413.577 2.32 2.32 0 0 1-1.558.466H0v-6.405h2.683a2.29 2.29 0 0 1 1.487.425c.173.146.3.33.4.538a1.47 1.47 0 0 1 .12.661 1.49 1.49 0 0 1-.312.98 1.45 1.45 0 0 1-.817.5 1.56 1.56 0 0 1 .926.548zm-3.213-.967H2.42c.26.02.52-.056.73-.213a.76.76 0 0 0 .196-.284c.043-.1.06-.225.05-.342a.79.79 0 0 0-.052-.34.77.77 0 0 0-.192-.285 1.11 1.11 0 0 0-.75-.216H1.275v1.68zm1.988 2.456a.77.77 0 0 0 .21-.294.8.8 0 0 0 .06-.357.81.81 0 0 0-.277-.657 1.18 1.18 0 0 0-.779-.232H1.275v1.762h1.22c.274.016.546-.062.77-.222zm6.71 1.263L8.48 39.528h-.56v2.503H6.635v-6.405h2.43a2.39 2.39 0 0 1 1.692.544c.34.348.545.806.578 1.292a2.05 2.05 0 0 1-.397 1.359 1.97 1.97 0 0 1-1.159.651l1.6 2.56H9.972zM7.92 38.655h1.05c.73 0 1.094-.323 1.094-.97a.92.92 0 0 0-.06-.388.97.97 0 0 0-.21-.332c-.23-.192-.527-.286-.826-.26H7.906l.012 1.95zM17 40.742h-2.56l-.452 1.3h-1.346l2.35-6.333h1.455l2.34 6.333H17.43l-.443-1.3zm-.343-.97l-.935-2.703-.935 2.703h1.87zm9.13 2.258H24.5l-2.858-4.355v4.355h-1.27v-6.405h1.27l2.858 4.38v-4.38h1.275v6.405zm7.274-1.532a2.76 2.76 0 0 1-1.153 1.13c-.555.28-1.17.42-1.792.404h-2.27v-6.405h2.27c.62-.016 1.235.12 1.792.394a2.71 2.71 0 0 1 1.153 1.117c.262.52.4 1.096.4 1.68s-.137 1.16-.4 1.68zm-1.46-.153a2.35 2.35 0 0 0 0-3.057 2.21 2.21 0 0 0-1.596-.544h-.885V40.9h.885a2.21 2.21 0 0 0 1.596-.544zM17.8 0s16.45 6.236 16.1 15.26v15.263s-16.44-6.24-16.096-15.263L17.8 0zm30.757 26.95a22.47 22.47 0 0 1 10.452-3.867v-4.778C54.677 19.977 51 23 48.547 26.95zM46.68 28.4A22.39 22.39 0 0 1 59 17.304V3.536S35.57 12.42 36.066 25.27V47s1.044-.397 2.686-1.142c0-.695 0-1.395.075-2.1a22.57 22.57 0 0 1 7.853-15.37zm-2.227 8.072c.123-1.507.398-2.998.82-4.45a21.04 21.04 0 0 0-4.899 11.874l-.062 1.252a68.03 68.03 0 0 0 4.506-2.384 22.59 22.59 0 0 1-.365-6.292zm.932.078a21.58 21.58 0 0 0 .29 5.698c6.4-3.846 13.594-9.787 13.316-16.968v-.626c-4.573.514-8.852 2.52-12.18 5.713a21.49 21.49 0 0 0-1.427 6.183z"/></svg>