<svg xmlns="http://www.w3.org/2000/svg" width="80" height="43" fill="#2196f3" xmlns:v="https://vecta.io/nano"><path d="M12.402 12.83H12.4c-2.262 0-4.096 1.787-4.096 3.992v.003c0 2.205 1.834 3.992 4.096 3.992h.003c2.262 0 4.096-1.787 4.096-3.992v-.003c0-2.205-1.834-3.992-4.096-3.992zm30.235-1.275c-.006-3.062-1.257-5.997-3.48-8.162A12.04 12.04 0 0 0 30.783 0h0c-3.143.006-6.156 1.225-8.38 3.4s-3.474 5.1-3.48 8.164V28.44s23.7-2.573 23.714-16.883v-.003zM0 33.982a7.96 7.96 0 0 0 2.422 5.679c1.546 1.507 3.64 2.356 5.827 2.362 2.186-.006 4.28-.855 5.826-2.36a7.96 7.96 0 0 0 2.423-5.678v-11.75S0 24.028 0 33.982zm8.25 2.105a2.2 2.2 0 0 1-1.2-.355c-.355-.23-.632-.56-.796-.945s-.206-.808-.123-1.216a2.09 2.09 0 0 1 .591-1.078 2.18 2.18 0 0 1 1.106-.576c.42-.08.853-.04 1.248.12a2.15 2.15 0 0 1 .97.775 2.07 2.07 0 0 1 .364 1.17 2.06 2.06 0 0 1-.162.808 2.1 2.1 0 0 1-.468.686c-.2.196-.44.352-.702.458a2.21 2.21 0 0 1-.829.161v-.008zM25.1 34.78h-1.687v1.743h-.88V32.26H25.3v.712h-1.898v1.102H25.1v.7zm4.225-.293c0 .42-.074.788-.223 1.104s-.36.56-.64.732-.592.258-.95.258-.67-.085-.946-.255a1.7 1.7 0 0 1-.644-.727c-.152-.315-.23-.68-.23-1.1v-.2c0-.42.075-.8.226-1.107s.366-.566.642-.735.594-.258.95-.258a1.75 1.75 0 0 1 .946.258c.277.17.5.415.642.735s.23.687.23 1.105v.2zm-.9-.193c0-.447-.08-.787-.24-1.02s-.4-.35-.686-.35a.78.78 0 0 0-.683.346c-.16.228-.24.564-.243 1.008v.208c0 .435.08.773.24 1.014a.78.78 0 0 0 .691.36c.295 0 .52-.115.68-.346s.238-.57.24-1.014v-.208zm3.74 1.1c0-.166-.06-.293-.176-.38s-.328-.184-.633-.28-.546-.197-.724-.293c-.484-.262-.727-.614-.727-1.058a1.03 1.03 0 0 1 .193-.615 1.27 1.27 0 0 1 .56-.425c.243-.102.518-.152.82-.152a1.92 1.92 0 0 1 .815.167c.24.11.423.265.554.466a1.23 1.23 0 0 1 .2.686h-.88a.57.57 0 0 0-.185-.454c-.123-.1-.296-.164-.518-.164-.215 0-.382.046-.5.138s-.18.2-.18.357c0 .14.07.255.208.35s.347.182.618.264c.5.15.864.337 1.093.56s.343.5.343.832a1.03 1.03 0 0 1-.419.87c-.28.2-.655.313-1.128.313-.328 0-.627-.06-.896-.18a1.43 1.43 0 0 1-.618-.495 1.27 1.27 0 0 1-.211-.727h.882c0 .47.28.706.844.706.2 0 .372-.042.5-.126s.176-.205.176-.357zm4.7-2.435h-1.307v3.554h-.88V32.97h-1.3v-.712h3.475v.712zm3.07 1.705h-1.687v1.143h1.98v.706h-2.86V32.26h2.854v.712h-1.975v1.017h1.688v.7zm2.388.287h-.7v1.562h-.88V32.26h1.585c.504 0 .893.112 1.166.337s.4.542.4.952c0 .3-.064.534-.2.73s-.315.348-.57.463l.923 1.743v.04h-.943l-.8-1.562zm-.7-.712h.7c.22 0 .392-.056.513-.167s.182-.27.182-.466-.058-.36-.173-.475-.288-.173-.524-.173h-.706v1.28zm5.326.77v1.503h-.88V32.26h1.664c.32 0 .602.06.844.176a1.29 1.29 0 0 1 .563.501c.13.215.196.46.196.735 0 .418-.144.748-.43 1s-.68.36-1.187.36h-.77zm0-.712h.785c.232 0 .4-.055.53-.164s.185-.266.185-.47c0-.2-.062-.378-.185-.507s-.293-.195-.5-.2h-.806v1.34zm5.56.366h-1.687v1.143h1.98v.706h-2.86V32.26h2.853v.712H50.82v1.017h1.68v.7zm4.078-1.705H55.27v3.554h-.88V32.97h-1.3v-.712h3.475v.712zm3.07 1.705H57.96v1.143h1.98v.706h-2.86V32.26h2.854v.712H57.96v1.017h1.688v.7zm2.388.287h-.7v1.562h-.88V32.26h1.585c.504 0 .893.112 1.166.337s.4.542.4.952c0 .3-.063.534-.2.73s-.315.348-.57.463l.923 1.743v.04h-.943l-.8-1.562zm-.7-.712h.7c.22 0 .392-.056.513-.167s.182-.27.182-.466-.058-.36-.173-.475-.288-.173-.524-.173h-.706v1.28zm5.165 1.154c0-.166-.06-.293-.176-.38s-.328-.184-.633-.28a4.56 4.56 0 0 1-.724-.293c-.484-.262-.727-.614-.727-1.058a1.03 1.03 0 0 1 .193-.615 1.27 1.27 0 0 1 .56-.425c.243-.102.518-.152.82-.152a1.92 1.92 0 0 1 .815.167c.24.11.423.265.554.466a1.23 1.23 0 0 1 .2.686h-.88a.57.57 0 0 0-.185-.454c-.123-.1-.296-.164-.52-.164-.215 0-.382.046-.5.138s-.18.2-.18.357c0 .14.07.255.208.35s.347.182.618.264c.5.15.864.337 1.093.56s.343.5.343.832a1.03 1.03 0 0 1-.419.87c-.28.2-.655.313-1.128.313-.328 0-.627-.06-.896-.18a1.43 1.43 0 0 1-.618-.495 1.27 1.27 0 0 1-.211-.727H65c0 .47.28.706.844.706.2 0 .372-.042.5-.126s.176-.205.176-.357z"/></svg>