<svg xmlns="http://www.w3.org/2000/svg" width="41" height="43" fill="#afb1b8" xmlns:v="https://vecta.io/nano"><path d="M6.346 41.795c.015 0 .03.004.043.01s.026.014.036.025l.206.216a1.7 1.7 0 0 1-.58.41 2.07 2.07 0 0 1-.82.147 2.01 2.01 0 0 1-.772-.137 1.67 1.67 0 0 1-.581-.387c-.166-.173-.293-.377-.376-.598-.1-.247-.134-.506-.13-.767a2.03 2.03 0 0 1 .14-.77 1.92 1.92 0 0 1 .4-.598 2 2 0 0 1 .617-.4 2.23 2.23 0 0 1 .795-.137 1.97 1.97 0 0 1 .738.125 1.95 1.95 0 0 1 .553.346l-.172.23c-.012.016-.027.03-.044.042s-.045.02-.07.017-.052-.01-.075-.025l-.093-.06-.13-.078a1.4 1.4 0 0 0-.172-.076 1.46 1.46 0 0 0-.234-.06 1.56 1.56 0 0 0-.306-.024 1.53 1.53 0 0 0-.571.103 1.29 1.29 0 0 0-.448.289 1.34 1.34 0 0 0-.291.461 1.68 1.68 0 0 0-.105.608 1.72 1.72 0 0 0 .105.618 1.36 1.36 0 0 0 .285.458 1.16 1.16 0 0 0 .427.284 1.41 1.41 0 0 0 .53.098c.105.002.2-.005.314-.02.17-.02.332-.076.476-.164a1.51 1.51 0 0 0 .203-.152c.026-.024.06-.038.098-.04zm5.94-1.085a2.03 2.03 0 0 1-.139.762c-.084.22-.216.423-.387.592s-.38.3-.608.4c-.504.183-1.06.183-1.564 0a1.63 1.63 0 0 1-.604-.4 1.74 1.74 0 0 1-.391-.598 2.17 2.17 0 0 1 0-1.527c.088-.223.22-.427.4-.6a1.78 1.78 0 0 1 .604-.375 2.26 2.26 0 0 1 1.564 0 1.64 1.64 0 0 1 .607.4 1.82 1.82 0 0 1 .388.59c.095.245.142.505.14.767zm-.54 0a1.76 1.76 0 0 0-.098-.613 1.26 1.26 0 0 0-.275-.458 1.21 1.21 0 0 0-.435-.289 1.66 1.66 0 0 0-1.137 0 1.21 1.21 0 0 0-.435.289 1.26 1.26 0 0 0-.278.458 1.96 1.96 0 0 0 0 1.225c.058.17.153.326.278.458a1.21 1.21 0 0 0 .435.287 1.7 1.7 0 0 0 1.137 0 1.2 1.2 0 0 0 .435-.287c.123-.133.217-.3.275-.458a1.73 1.73 0 0 0 .098-.613zm4.593.643l.054.137.06-.137a1.32 1.32 0 0 1 .067-.135l1.314-2.276c.026-.04.05-.064.075-.07a.33.33 0 0 1 .108-.012h.388v3.703h-.46v-2.965l-1.322 2.308c-.017.035-.044.064-.077.084a.22.22 0 0 1-.113.03h-.075a.21.21 0 0 1-.113-.03.2.2 0 0 1-.077-.085l-1.36-2.323v2.972h-.445V38.86h.388a.33.33 0 0 1 .108.012.15.15 0 0 1 .072.071l1.343 2.28c.026.042.05.086.067.132zm4.947-.183v1.387h-.514V38.86h1.147a2.25 2.25 0 0 1 .64.081 1.23 1.23 0 0 1 .453.23.95.95 0 0 1 .257.363 1.21 1.21 0 0 1 .088.473c.002.162-.03.323-.095.473a1.01 1.01 0 0 1-.278.37 1.27 1.27 0 0 1-.455.245c-.2.06-.4.1-.62.086l-.622-.01zm0-.397h.622a1.32 1.32 0 0 0 .399-.056.83.83 0 0 0 .288-.16.65.65 0 0 0 .175-.245.77.77 0 0 0 .062-.311.67.67 0 0 0-.052-.3.71.71 0 0 0-.18-.253 1.03 1.03 0 0 0-.692-.198h-.622v1.524zM28.2 42.56h-.406c-.04.001-.08-.01-.113-.034s-.052-.052-.067-.086l-.35-.895h-1.757l-.363.895a.2.2 0 0 1-.064.083c-.033.025-.074.038-.116.037h-.406l1.543-3.703h.535L28.2 42.56zm-2.546-1.375h1.45l-.612-1.507a2.68 2.68 0 0 1-.116-.348l-.06.194-.057.157-.607 1.505zm4.77-2.3c.03.016.057.04.077.066l2.25 2.8v-2.875h.46v3.703h-.257a.23.23 0 0 1-.105-.022.25.25 0 0 1-.082-.07l-2.248-2.8c.003.042.003.085 0 .127v2.752h-.46v-3.703h.273a.23.23 0 0 1 .093.017zm6.58 2.213v1.47h-.514v-1.47l-1.422-2.23h.46c.04-.002.08.01.1.032s.052.052.07.083l.9 1.44.093.17a1.44 1.44 0 0 1 .064.157l.067-.16c.025-.058.054-.115.088-.17l.877-1.448c.018-.03.04-.055.067-.078s.07-.04.1-.037h.465l-1.425 2.24zm-20.917-8.444l.68.07c3.47-1.48 6.407-3.9 8.44-6.96s3.077-6.624 2.997-10.245l-3.825-3.644a20.22 20.22 0 0 1-1.051 11.512c-1.465 3.67-3.972 6.88-7.242 9.27zm-1.366-.17l.103.02c3.494-2.38 6.158-5.706 7.648-9.546a19.54 19.54 0 0 0 .707-11.99l-5.448-5.2c2.203 4.266 3.1 9.04 2.558 13.768s-2.463 9.214-5.567 12.937zm18.476-12.69c-.925 3.98-3.173 7.568-6.4 10.234-.945.783-1.965 1.48-3.045 2.083 2.635-.738 5.058-2.043 7.08-3.813s3.6-3.96 4.585-6.4l-2.2-2.103zm-.866-.586l-3.146-2.997a18.47 18.47 0 0 1-2.953 9.67c-1.873 2.914-4.53 5.298-7.698 6.903h.015a18.76 18.76 0 0 0 2.112-.12c2.96-1.15 5.574-2.982 7.6-5.33s3.43-5.14 4.06-8.126zM15.176 3.58L11.423 0c-3.355 1.235-6.24 3.406-8.278 6.23S.01 12.397 0 15.823h0c.013 3.786 1.35 7.46 3.8 10.44s5.875 5.097 9.73 6.015c3.442-3.995 5.457-8.932 5.753-14.093S18.14 7.9 15.176 3.58zM41 18.65c-.014-4.492-1.893-8.797-5.227-11.973S27.92 1.7 23.206 1.696a18.34 18.34 0 0 0-6.37 1.13l22.977 21.9A16.07 16.07 0 0 0 41 18.649z"/></svg>