<svg xmlns="http://www.w3.org/2000/svg" width="89" height="46" fill="#afb1b8" xmlns:v="https://vecta.io/nano"><path d="M44.74 21.353a3.26 3.26 0 0 1-.571-2.057v-2.983c0-.914.2-1.6.567-2.084s1.028-.712 1.95-.7c.865 0 1.48.202 1.843.607.396.516.6 1.147.545 1.784v.7h-1.548v-.7a3.96 3.96 0 0 0-.045-.695.69.69 0 0 0-.221-.413c-.16-.118-.36-.176-.56-.16-.212-.015-.422.046-.6.17a.81.81 0 0 0-.256.455 3.78 3.78 0 0 0-.06.737v3.62a2 2 0 0 0 .199 1.017c.077.108.184.193.3.246a.78.78 0 0 0 .399.057.79.79 0 0 0 .548-.164c.126-.12.207-.273.23-.44a4.37 4.37 0 0 0 .048-.725v-.734h1.548v.67a2.92 2.92 0 0 1-.535 1.875c-.356.443-.962.664-1.852.664s-1.564-.237-1.945-.728zm6.446.03c-.4-.464-.587-1.14-.587-2.036V16.2c0-.886.196-1.557.587-2.012s1.045-.682 1.96-.68c.9 0 1.56.226 1.952.68s.6 1.126.6 2.012v3.137c0 .886-.2 1.566-.596 2.033s-1.045.7-1.945.7-1.567-.237-1.96-.698zm2.682-.753a1.89 1.89 0 0 0 .186-.928v-3.84c.018-.313-.045-.625-.183-.9a.74.74 0 0 0-.316-.25.78.78 0 0 0-.408-.053c-.14-.018-.28 0-.4.054a.75.75 0 0 0-.318.249 1.8 1.8 0 0 0-.186.91v3.86a1.86 1.86 0 0 0 .186.928.96.96 0 0 0 .327.23 1.01 1.01 0 0 0 .796 0 .96.96 0 0 0 .326-.23v-.018zm3.682-7.02h1.667l1.253 5.8 1.282-5.8h1.622l.163 8.355h-1.2l-.128-5.807-1.237 5.807H60l-1.282-5.828-.118 5.828h-1.2l.15-8.355zm7.856 0h2.596c1.496 0 2.243.8 2.243 2.373 0 1.515-.787 2.27-2.362 2.27H67v3.713h-1.602l.01-8.355zm2.218 3.57a1.16 1.16 0 0 0 .471-.04 1.01 1.01 0 0 0 .4-.224c.184-.282.265-.614.23-.944a2.86 2.86 0 0 0-.077-.758c-.023-.083-.063-.16-.118-.23a.67.67 0 0 0-.203-.168 1.53 1.53 0 0 0-.715-.133H67v2.497h.622zm4.932-3.57h1.72l1.766 8.355H74.55l-.35-1.927h-1.535l-.36 1.927H70.8l1.766-8.355zm1.47 5.46l-.6-3.507-.6 3.507h1.2zm3.444-5.46h1.122l2.147 4.766V13.6h1.33v8.355H81L78.84 17v4.976h-1.375l.003-8.355zm7.714 5.17L83.4 13.622h1.503l1.1 3.313 1.022-3.313h1.47L86.73 18.78v3.186h-1.538V18.78zm-37.97 6.84v.437h-1.308v3.395h-.548v-3.395h-1.314v-.437h3.17zm4.1 3.83h-.423a.18.18 0 0 1-.12-.036c-.035-.026-.056-.053-.07-.088l-.378-.9H48.5l-.378.9c-.01.038-.03.073-.058.103-.034.025-.076.038-.12.036h-.423l1.602-3.832h.558l1.622 3.817zm-2.654-1.423h1.513l-.64-1.56a3.45 3.45 0 0 1-.12-.36l-.06.203-.058.16-.635 1.556zm5.417 1.048a3.03 3.03 0 0 0 .301 0 1.58 1.58 0 0 0 .256-.046 1.82 1.82 0 0 0 .231-.07l.215-.094v-.862h-.64c-.016.001-.032-.001-.047-.007s-.03-.013-.04-.024-.02-.02-.024-.032-.008-.025-.008-.038v-.294h1.243v1.47a2.2 2.2 0 0 1-.32.182 2.22 2.22 0 0 1-.356.131c-.13.037-.265.063-.4.08a4.46 4.46 0 0 1-.468.024 2.25 2.25 0 0 1-.808-.143 1.91 1.91 0 0 1-.64-.4 1.85 1.85 0 0 1-.413-.607c-.1-.254-.15-.524-.147-.795a2.15 2.15 0 0 1 .144-.8 1.76 1.76 0 0 1 .413-.607 1.91 1.91 0 0 1 .641-.398 2.48 2.48 0 0 1 .86-.143 2.94 2.94 0 0 1 .446.033 2.04 2.04 0 0 1 .381.097c.112.04.22.1.32.152a2.27 2.27 0 0 1 .279.2l-.154.237a.14.14 0 0 1-.052.052.15.15 0 0 1-.073.02c-.035-.001-.07-.012-.1-.03a2.15 2.15 0 0 1-.157-.09 1.37 1.37 0 0 0-.215-.103 1.88 1.88 0 0 0-.295-.085c-.134-.023-.27-.035-.407-.033-.212-.002-.42.034-.62.106-.178.068-.34.17-.47.303a1.35 1.35 0 0 0-.298.476c-.143.415-.143.863 0 1.277a1.37 1.37 0 0 0 .321.482 1.35 1.35 0 0 0 .468.303 1.66 1.66 0 0 0 .634.076zm5.108-.06h1.75v.437H58.65v-3.83h.548l-.013 3.395zm3.57.436h-.548v-3.83h.548v3.832zm2.038-3.813c.033.018.06.04.083.07l2.343 2.9a.97.97 0 0 1 0-.137v-2.855h.478v3.847h-.276a.24.24 0 0 1-.119-.021.32.32 0 0 1-.086-.073l-2.34-2.886v2.98h-.458V25.62h.285c.03 0 .06.006.1.018zm6.938-.017v.422H69.8v1.265h1.574v.406H69.8v1.308h1.942v.422h-2.506V25.62h2.506zM14.304 1.954l24.335 6.54v22.922L14.304 24.88V1.954zM12.743 0v25.993l27.453 7.382v-26L12.743 0z"/><path d="M27.457 45.44L0 38.052v-26l27.457 7.385V45.44z"/><path d="M13.198 1.66l24.018 6.46L27 17.8 2.98 11.33l10.217-9.67zM12.743 0L0 12.063l27.457 7.385 12.74-12.063L12.743 0zm16.26 43.978l11.195-10.6-11.195-3.013v13.613z"/></svg>