<svg xmlns="http://www.w3.org/2000/svg" width="20" height="20" fill="none" xmlns:v="https://vecta.io/nano"><g clip-path="url(#A)" fill="#afb1b8"><path d="M19.98 5.88c-.047-1.063-.22-1.793-.465-2.426a4.88 4.88 0 0 0-1.157-1.774 4.92 4.92 0 0 0-1.77-1.153C15.952.28 15.226.1 14.163.063L10.037 0 5.915.06C4.853.105 4.122.277 3.5.523A4.88 4.88 0 0 0 1.715 1.68c-.508.5-.902 1.106-1.153 1.77-.246.637-.418 1.363-.465 2.426l-.063 4.126.06 4.122c.047 1.063.22 1.793.465 2.426a4.93 4.93 0 0 0 1.156 1.774c.5.508 1.106.903 1.77 1.153.637.246 1.363.418 2.426.465l4.122.06 4.122-.06c1.063-.047 1.793-.22 2.426-.465a5.12 5.12 0 0 0 2.927-2.926c.246-.637.418-1.364.465-2.426l.06-4.122-.05-4.122zm-1.8 8.166c-.043.977-.207 1.504-.344 1.856a3.32 3.32 0 0 1-1.899 1.899c-.352.137-.883.3-1.856.344l-4.04.06c-2.67 0-3-.012-4.04-.06-.977-.043-1.504-.207-1.856-.344a3.09 3.09 0 0 1-1.15-.746 3.11 3.11 0 0 1-.746-1.149c-.137-.352-.3-.883-.344-1.856L1.848 10l.06-4.04c.043-.977.207-1.504.344-1.856a3.04 3.04 0 0 1 .75-1.149 3.1 3.1 0 0 1 1.15-.746c.352-.137.883-.3 1.856-.344l4.04-.06 4.04.06c.977.043 1.504.207 1.856.344a3.1 3.1 0 0 1 1.15.746 3.11 3.11 0 0 1 .746 1.149c.137.352.3.883.344 1.856l.06 4.04-.06 4.036zm-8.143-9.182a5.14 5.14 0 0 0-5.138 5.138 5.14 5.14 0 0 0 5.138 5.138 5.14 5.14 0 0 0 5.138-5.138 5.14 5.14 0 0 0-5.138-5.138zm0 8.47c-1.84 0-3.333-1.492-3.333-3.333s1.493-3.33 3.333-3.33 3.333 1.492 3.333 3.333-1.492 3.333-3.333 3.333zm6.54-8.674a1.2 1.2 0 0 1-1.2 1.199 1.2 1.2 0 0 1-1.199-1.199 1.2 1.2 0 0 1 1.199-1.199 1.2 1.2 0 0 1 1.2 1.199z"/></g><defs><clipPath id="A"><path fill="#fff" d="M0 0h20v20H0z"/></clipPath></defs></svg>