<svg xmlns="http://www.w3.org/2000/svg" width="20" height="20" fill="none" xmlns:v="https://vecta.io/nano"><g clip-path="url(#A)"><path d="M20 3.8a8.55 8.55 0 0 1-2.363.648c.85-.507 1.5-1.305 1.804-2.266-.792.472-1.667.806-2.6.992a4.11 4.11 0 0 0-2.995-1.297 4.1 4.1 0 0 0-4.097 4.101c0 .325.027.637.095.935-3.41-.166-6.425-1.8-8.45-4.29C1.04 3.236.83 3.94.83 4.695c0 1.42.73 2.68 1.82 3.407A4.05 4.05 0 0 1 .8 7.598v.045a4.12 4.12 0 0 0 3.285 4.029 4.09 4.09 0 0 1-1.075.135 3.62 3.62 0 0 1-.776-.07 4.14 4.14 0 0 0 3.831 2.856 8.24 8.24 0 0 1-5.084 1.749A7.67 7.67 0 0 1 0 16.285c1.816 1.17 3.97 1.84 6.3 1.84 7.545 0 11.67-6.25 11.67-11.667 0-.18-.006-.356-.015-.53.814-.578 1.497-1.3 2.055-2.13z" fill="#afb1b8"/></g><defs><clipPath id="A"><path fill="#fff" d="M0 0h20v20H0z"/></clipPath></defs></svg>